<svg viewBox="0 0 307.772 354.263" class="Icon__StyledSvg-sc-10qpb8y-0 cWnymm bag"><path d="M270.491,301.857,252.006,77.695a9.5,9.5,0,0,0-9.451-8.511H196.948v-10.4a58.786,58.786,0,0,0-117.573,0v10.4H33.767a9.5,9.5,0,0,0-9.451,8.511L.051,308.77A9.5,9.5,0,0,0,9.5,319.263H266.818c2.694,0,3.607-1.142,5.407-3.142s-1.454-11.587-1.735-14.264ZM98.379,58.786a39.782,39.782,0,0,1,79.565,0v10.4H98.379ZM20.054,300.26,42.325,88.188H79.375v20.94a9.5,9.5,0,1,0,19,0V88.188h79.565v20.94a9.5,9.5,0,0,0,19,0V88.188H234l22.27,212.072Zm0,0" transform="translate(17.522 17.5)" stroke-width="35"></path></svg>