<svg version="1.1" id="Layer_1" xmlns="http://www.w3.org/2000/svg" xmlns:xlink="http://www.w3.org/1999/xlink" x="0px" y="0px"
	 viewBox="0 0 3000 650" style="enable-background:new 0 0 3000 650;" xml:space="preserve">
<g>
	<path d="M173.9,122c29,0,54.9,4.4,77.9,13.3c23,8.8,43.4,22.1,61,39.8l-43,84.6c-14.3-12.4-29.3-22.4-45-29.9
		c-15.7-7.5-32.7-11.3-51-11.3c-7.9,0-14.2,0.8-19,2.3c-4.7,1.5-8.1,3.6-10.1,6.2c-2,2.6-3,5.6-3,9c0,4.5,2.8,7.9,8.5,10.1
		c5.6,2.3,12.7,4.7,21.3,7.3l41.6,11.8c30.8,8.7,54,21.4,69.7,38.3c15.7,16.9,23.5,40.4,23.5,70.5c0,30.1-5.9,54.8-17.8,74.1
		c-11.9,19.4-28,33.7-48.2,43.1c-20.3,9.4-43.2,14.1-68.8,14.1c-19.2,0-38.4-2.2-57.6-6.5c-19.2-4.3-37-10.7-53.5-19.2
		C44.1,471.3,29.9,461.1,18,449l42.1-86.3c8.8,8.7,19.5,16.4,32,23.4c12.5,7,25.4,12.5,38.9,16.6c13.4,4.1,25.9,6.2,37.5,6.2
		c7.3,0,13.1-0.7,17.4-2.3c4.3-1.5,7.2-3.5,8.9-5.9c1.7-2.4,2.5-5.4,2.5-8.7c0-5.3-1.8-9.2-5.3-11.8c-3.5-2.6-9.8-5.3-19-7.9
		L127.3,360c-16.2-4.5-31.5-10.5-46.2-18c-14.6-7.5-26.5-18.5-35.7-33c-9.1-14.5-13.7-34.1-13.7-58.9c0-25.6,5.6-47.9,16.7-67.1
		c11.1-19.2,27.3-34.1,48.5-44.8C118,127.4,143.7,122,173.9,122z"/>
	<path d="M806.7,127.6c27.1,0,50.1,5.1,69,15.2c18.9,10.1,33.2,25,43,44.5c9.7,19.6,14.6,43.4,14.6,71.6c0,28.2-4.9,52.1-14.6,71.6
		c-9.8,19.5-24.1,34.4-43,44.5c-18.9,10.1-41.9,15.2-69,15.2h-53.5v109.4H646.7V127.6H806.7z M789.3,297.4c11.6,0,20.7-3.1,27.4-9.3
		c6.7-6.2,10.1-15.9,10.1-29c0-13.2-3.4-22.8-10.1-29c-6.7-6.2-15.9-9.3-27.4-9.3h-36.1v76.7H789.3z"/>
	<path d="M1387.7,127.6c39.3,0,69.5,10.8,90.5,32.4c21,21.6,31.5,50.3,31.5,86c0,41-10.3,71.8-30.9,92.5c-20.6,20.7-50.5,31-89.8,31
		l-10.5,6.8h-50.3v123.5H1224V127.6H1387.7z M1369.4,290c11.3,0,19.7-2.5,25.4-7.6c5.6-5.1,8.5-14,8.5-26.8
		c0-12.4-2.8-21.2-8.5-26.5c-5.6-5.3-14.1-7.9-25.4-7.9h-41.1V290H1369.4z M1432.5,317.7l94.2,182.1H1411l-70.4-163L1432.5,317.7z"
		/>
	<path d="M1960.8,122c32,0,59.4,7.5,82.3,22.6c22.9,15,40.4,36.8,52.6,65.4c12.2,28.6,18.3,63.2,18.3,103.8
		c0,40.6-6.1,75.2-18.3,103.8c-12.2,28.6-29.7,50.4-52.6,65.4c-22.9,15-50.3,22.6-82.3,22.6c-31.7,0-59-7.5-82.1-22.6
		c-23-15-40.7-36.8-53-65.4c-12.3-28.6-18.5-63.2-18.5-103.8c0-40.6,6.2-75.2,18.5-103.8c12.3-28.6,30-50.4,53-65.4
		C1901.8,129.5,1929.1,122,1960.8,122z M1960.8,220.7c-10.4,0-18.8,3.3-25.4,9.9c-6.6,6.6-11.4,16.6-14.6,30.2
		c-3.2,13.5-4.8,31.2-4.8,53c0,21.4,1.6,39,4.8,52.7c3.2,13.7,8.1,23.9,14.6,30.4c6.5,6.6,15,9.9,25.4,9.9c10.4,0,18.8-3.3,25.4-9.9
		c6.5-6.6,11.4-16.7,14.4-30.4c3-13.7,4.6-31.3,4.6-52.7c0-21.8-1.5-39.5-4.6-53c-3-13.5-7.8-23.6-14.4-30.2
		C1979.7,224,1971.2,220.7,1960.8,220.7z"/>
	<path d="M2588.4,122c32,0,59.4,7.5,82.3,22.6c22.9,15,40.4,36.8,52.6,65.4c12.2,28.6,18.3,63.2,18.3,103.8
		c0,40.6-6.1,75.2-18.3,103.8c-12.2,28.6-29.7,50.4-52.6,65.4c-22.9,15-50.3,22.6-82.3,22.6c-31.7,0-59-7.5-82.1-22.6
		c-23-15-40.7-36.8-53-65.4c-12.3-28.6-18.5-63.2-18.5-103.8c0-40.6,6.2-75.2,18.5-103.8c12.3-28.6,30-50.4,53-65.4
		C2529.4,129.5,2556.7,122,2588.4,122z M2588.4,220.7c-10.4,0-18.8,3.3-25.4,9.9c-6.6,6.6-11.4,16.6-14.6,30.2
		c-3.2,13.5-4.8,31.2-4.8,53c0,21.4,1.6,39,4.8,52.7c3.2,13.7,8.1,23.9,14.6,30.4c6.5,6.6,15,9.9,25.4,9.9c10.4,0,18.8-3.3,25.4-9.9
		c6.5-6.6,11.4-16.7,14.4-30.4c3-13.7,4.6-31.3,4.6-52.7c0-21.8-1.5-39.5-4.6-53c-3-13.5-7.8-23.6-14.4-30.2
		C2607.3,224,2598.8,220.7,2588.4,220.7z"/>
</g>
<g>
	<path d="M438.7,505.4c-32.6,0-59.8-7-81.6-20.9c-21.8-13.9-37-33.8-45.7-59.8c-8.7-25.9-9.7-56.8-3-92.5l38.9-204.7h107
		l-40.7,219.9c-2.1,12.4-2.1,23,0,31.9c2.1,8.8,6.2,15.6,12.1,20.3c5.9,4.7,13.5,7,22.6,7c11.6,0,20.6-4.1,27-12.4
		c6.4-8.3,11.3-21.8,14.6-40.6l42.5-226.1h106.5l-42.1,222.2c-10.4,53.8-27.9,93.1-52.6,118.1C519.6,492.9,484.4,505.4,438.7,505.4z
		"/>
	<path d="M893.6,499.8l69.9-372.2h253.3l-18.3,96.4h-146.7l-8.7,46.2h116.1l-16.5,89.1h-116.1l-8.2,44h149.5l-18.3,96.4H893.6z"/>
	<path d="M1645.1,505.4c-27.7,0-52.2-6.7-73.4-20c-21.2-13.3-37.8-32.1-49.8-56.4c-12-24.2-18.1-52.5-18.1-84.9
		c0-34.2,3.9-64.9,11.7-92.2c7.8-27.3,19-50.6,33.6-69.9c14.6-19.4,32.5-34.2,53.5-44.5c21-10.3,44.8-15.5,71.3-15.5
		c25,0,47.2,5.3,66.5,15.8c19.3,10.5,35,25.7,47.1,45.4c12,19.7,19.4,43.5,22.2,71.3l-100.6,24.2c0.6-18.8-1.9-33.2-7.5-43.1
		c-5.6-10-15.2-14.9-28.6-14.9c-11.3,0-21,4.3-29,13c-8.1,8.7-14.7,19.6-19.9,33c-5.2,13.3-8.9,27.5-11.2,42.6
		c-2.3,15-3.4,29.1-3.4,42.3c0,11.3,1.4,21.1,4.3,29.3c2.9,8.3,7.4,14.7,13.5,19.2c6.1,4.5,14.2,6.8,24.2,6.8
		c12.5,0,22.3-4.9,29.5-14.7c7.2-9.8,13.2-22.4,18.1-37.8l93.7,42.3c-13.4,34.2-32.2,60.9-56.5,80.1
		C1712.1,495.8,1681.7,505.4,1645.1,505.4z"/>
	<path d="M2261.2,505.4c-26.8,0-50.9-6.5-72.2-19.5c-21.3-13-38.1-31.8-50.3-56.4c-12.2-24.6-18.3-54-18.3-88.2
		c0-32.3,3.8-61.9,11.4-88.8c7.6-26.9,18.7-50.1,33.1-69.6c14.5-19.5,32.1-34.6,53-45.1c20.9-10.5,44.4-15.8,70.6-15.8
		c27.1,0,51.3,6.5,72.5,19.5c21.2,13,37.9,31.7,50.1,56.1c12.2,24.4,18.3,53.9,18.3,88.5c0,32.3-3.8,61.9-11.4,88.8
		c-7.6,26.9-18.7,50.1-33.1,69.6c-14.5,19.5-32.2,34.6-53,45.1C2310.9,500.2,2287.4,505.4,2261.2,505.4z M2263,406.8
		c10.4,0,19.3-4.2,26.7-12.7c7.5-8.5,13.7-19.5,18.7-33c5-13.5,8.8-28.1,11.2-43.7c2.4-15.6,3.7-30.4,3.7-44.3
		c0-11.6-1.3-21.3-3.9-29c-2.6-7.7-6.6-13.5-11.9-17.5c-5.3-3.9-12.3-5.9-20.8-5.9c-10.4,0-19.3,4.2-26.7,12.7
		c-7.5,8.5-13.7,19.5-18.7,33c-5,13.5-8.8,28.1-11.2,43.7c-2.4,15.6-3.7,30.4-3.7,44.3c0,11.3,1.3,20.9,3.9,28.8
		c2.6,7.9,6.6,13.8,12.1,17.8C2247.9,404.8,2254.8,406.8,2263,406.8z"/>
	<path d="M2844.7,402.3H2986l-18.3,96.4h-247.8l69.9-372.2h106.5L2844.7,402.3z"/>
</g>
</svg>