<svg version="1.1" id="Layer_1" xmlns="http://www.w3.org/2000/svg" xmlns:xlink="http://www.w3.org/1999/xlink" x="0px" y="0px"
	 viewBox="0 0 3500 400" style="enable-background:new 0 0 3500 400;" xml:space="preserve">
<style type="text/css">
	.st0{fill:#FFE800;}
</style>
<g>
	<path class="st0" d="M284.5,323.3c-21.7,0-39.6-4.3-54-13c-14.3-8.7-24.3-21.2-29.9-37.6s-6.1-35.8-1.5-58.6l26.6-130.7h64.2
		l-28.1,139.9c-1.8,9.2-1.5,17.1,0.3,23.8c1.8,6.7,5.1,11.5,10,15.1c4.9,3.6,11,5.1,18.2,5.1c9.5,0,16.9-3.3,22.3-9.7
		c5.4-6.7,9.2-16.6,11.8-29.9l29.4-144.3h63.7l-29.2,143.5c-6.9,32.7-18.4,56.8-34.8,72.6C336.9,315.4,314.1,323.3,284.5,323.3z"/>
	<path class="st0" d="M574,317.9l47.6-236.1h166.8l-11,54.7H674.3l-7.7,38.4H748l-10,50.9h-81.3l-7.7,37.1h105.4l-11.3,54.7H574
		V317.9z"/>
	<path class="st0" d="M1063.9,318.7c-18.2,0-34.5-4.1-48.9-12.5c-14.3-8.4-25.6-20.2-33.8-35.6s-12.3-33.3-12.3-54
		c0-21,2.6-40.2,7.7-57.6c5.1-17.4,12.8-32.2,22.5-44.8s21.7-22.3,35.8-28.9c14.1-6.9,30.2-10.2,48.1-10.2c16.4,0,31,3.1,43.5,9.5
		c12.5,6.4,22.8,15.6,31,27.6c7.9,12,13,26.6,15.3,43.7l-60.9,14.3c-0.3-13-2.8-23-7.4-29.4c-4.9-6.7-12.3-9.7-22.5-9.7
		c-8.4,0-15.9,2.8-22.3,8.7c-6.1,5.6-11.5,13-15.6,21.7c-4.1,9-7.2,18.4-9,28.6c-1.8,10.2-2.8,20-2.8,29.4c0,9,1.3,16.4,4.1,23
		c2.8,6.4,6.7,11.5,11.8,15.1c5.1,3.6,11.5,5.4,19.2,5.4c9.5,0,17.1-3.1,22.5-9.5c5.4-6.4,10-14.6,13.8-24.6l56.5,24.3
		c-9,20.5-21.2,36.6-36.8,48.1C1107.6,313.1,1087.9,318.7,1063.9,318.7z"/>
	<path class="st0" d="M1464.7,318.7c-17.6,0-33.5-4.1-47.8-12.3c-14.3-8.2-25.6-20.2-33.8-35.6c-8.2-15.6-12.3-34.3-12.3-56.3
		c0-20,2.6-38.6,7.7-55.8s12.5-32,22.3-44.3c9.7-12.5,21.5-22.3,35.6-28.9c14.1-6.9,29.9-10.2,47.6-10.2c17.9,0,33.8,4.1,48.1,12.3
		c14.1,8.2,25.3,20.2,33.5,35.6c8.2,15.6,12.3,34.3,12.3,56.3c0,20-2.6,38.6-7.4,55.5c-4.9,16.9-12.3,31.7-22,44.3
		c-9.7,12.5-21.5,22.3-35.6,29.2C1498.5,315.4,1482.3,318.7,1464.7,318.7z M1466.2,262.7c8.2,0,15.1-2.8,21-8.2
		c5.9-5.4,10.7-12.8,14.8-21.7c3.8-9,6.9-18.7,9-29.2c2-10.5,3.1-20.7,3.1-30.4c0-9-1.3-16.6-3.6-23c-2.3-6.1-5.9-10.7-10.5-14.1
		c-4.6-3.1-10.5-4.6-17.6-4.6c-8.2,0-15.1,2.8-21,8.2c-5.9,5.4-10.7,12.8-14.8,21.7c-3.8,9-6.9,18.7-9,29.2
		c-2,10.5-3.1,20.7-3.1,30.4c0,9,1.3,16.4,3.6,22.8s5.9,11,10.7,14.1C1453.4,261.1,1459.3,262.7,1466.2,262.7z"/>
</g>
<g>
	<path class="st0" d="M106.2,75.4c19.4,0,36.8,3.1,51.9,9.2s28.4,15.3,39.9,27.6l-27.6,46.8c-9.5-9-19.2-16.1-29.7-21.2
		c-10.5-5.1-22-7.7-34.8-7.7c-6.4,0-11.8,0.8-15.6,2c-3.8,1.5-6.9,3.3-8.7,5.9c-1.8,2.6-2.6,5.4-2.6,8.4c0,3.8,2,6.9,6.1,9.2
		c4.1,2.3,9.7,4.6,16.9,6.4l31.2,8.2c20.7,5.4,36.3,13.6,46.6,24c10.2,10.7,15.3,25.1,15.3,43.5c0,17.9-3.8,32.7-11.8,44.8
		c-7.7,12-18.4,21-32,26.9c-13.6,5.9-28.9,9-45.8,9c-13.6,0-26.6-1.5-39.4-4.6c-12.8-3.1-24.6-7.7-35-13.3
		c-10.5-5.9-19.7-12.8-27.4-21L31,231.5c5.6,6.1,12.5,11.8,20.5,16.6c8.2,4.9,16.6,8.7,25.8,11.5c9.2,2.8,17.9,4.3,26.6,4.3
		c6.1,0,11-0.8,14.8-2s6.7-3.1,8.2-5.6c1.5-2.3,2.6-5.1,2.6-8.7c0-4.1-1.3-7.4-4.1-9.7c-2.8-2.6-7.7-4.6-15.3-6.7l-34.3-9
		c-11.3-2.8-21.7-6.9-31.2-11.8c-9.5-5.1-17.1-12-23-21c-5.6-9-8.7-20.7-8.7-35.3c0-15.6,3.6-29.2,11-41.2
		c7.2-12,17.9-21.2,31.7-27.9C69.9,78.8,86.5,75.4,106.2,75.4z"/>
	<path class="st0" d="M518.5,84.1c17.6,0,32.7,3.1,45,9.5s21.7,15.6,28.4,27.6c6.7,12,9.7,26.9,9.7,44.3s-3.3,32.2-9.7,44.3
		c-6.7,12-16.1,21.2-28.4,27.6s-27.4,9.5-45,9.5h-38.6v73.7h-63.7V84.1H518.5z M508.3,193.6c9.5,0,16.6-2.3,21.7-6.9
		c5.1-4.6,7.7-11.8,7.7-21.2s-2.6-16.6-7.7-21.2c-5.1-4.6-12.5-6.9-21.7-6.9h-28.4v56.5h28.4V193.6z"/>
	<path class="st0" d="M895.8,79c25.6,0,45.3,6.7,59.3,20.2c14.1,13.6,21,31.5,21,54c0,25.1-6.9,44-20.5,56.8
		c-13.8,12.8-33.5,19.4-59.3,19.4l-6.1,3.8h-37.3v81.9h-62.4V79H895.8z M885.3,183.4c9,0,15.6-2,20.2-5.9c4.3-3.8,6.7-10.5,6.7-19.4
		s-2.3-15.6-6.7-19.7c-4.3-4.1-11.3-6.1-20.2-6.1h-32.7v51.2H885.3z M923.2,199l64.7,116.4h-69.6L868.2,212L923.2,199z"/>
	<path class="st0" d="M1271.1,75.4c21.5,0,39.6,4.9,55,14.6c15.3,9.7,27.1,23.5,35.3,41.7c8.2,18.2,12.3,39.9,12.3,65.5
		s-4.1,47.3-12.3,65.5c-8.2,18.2-20,32-35.3,41.7s-33.5,14.6-55,14.6c-21.2,0-39.6-4.9-55-14.6c-15.6-9.7-27.4-23.5-35.8-41.7
		s-12.5-39.9-12.5-65.5s4.1-47.3,12.5-65.5c8.2-18.2,20.2-32,35.8-41.7C1231.7,80.3,1249.8,75.4,1271.1,75.4z M1271.1,131.2
		c-8.4,0-15.6,2.6-21,7.4c-5.6,4.9-9.7,12-12.5,21.7c-2.8,9.5-4.1,21.7-4.1,36.8c0,14.8,1.3,27.1,4.1,36.6
		c2.8,9.7,6.9,16.9,12.5,21.7c5.6,4.9,12.5,7.4,21,7.4c8.2,0,15.3-2.6,21-7.4c5.6-4.9,9.7-12.3,12.5-21.7c2.8-9.7,4.1-22,4.1-36.6
		c0-15.1-1.3-27.4-4.1-36.8s-6.9-16.9-12.5-21.7C1286.4,133.8,1279.5,131.2,1271.1,131.2z"/>
	<path class="st0" d="M1640.7,257.8h98v54.7h-161.4V76.5h63.7v181.4H1640.7z"/>
</g>
<g>
	<path class="st0" d="M2030.5,327.3c-21.7,0-39.6-4.3-54-13c-14.3-8.7-24.3-21.2-29.9-37.6s-6.1-35.8-1.5-58.6l26.6-130.7h64.2
		l-28.1,139.9c-1.8,9.2-1.5,17.1,0.3,23.8c1.8,6.7,5.1,11.5,10,15.1s11,5.1,18.2,5.1c9.5,0,16.9-3.3,22.3-9.7
		c5.4-6.7,9.2-16.6,11.8-29.9l29.4-144.3h63.7l-29.2,143.5c-6.9,32.7-18.4,56.8-34.8,72.6S2060.1,327.3,2030.5,327.3z"/>
	<path class="st0" d="M2320,321.9l47.6-236.1h166.8l-11,54.7h-103.1l-7.7,38.4h81.3l-10,50.9h-81.3l-7.7,37.1h105.4l-11.3,54.7H2320
		V321.9z"/>
	<path class="st0" d="M2809.9,322.7c-18.2,0-34.5-4.1-48.9-12.5c-14.3-8.4-25.6-20.2-33.8-35.6c-8.2-15.3-12.3-33.3-12.3-54
		c0-21,2.6-40.2,7.7-57.6c5.1-17.4,12.8-32.2,22.5-44.8s21.7-22.3,35.8-28.9c14.1-6.9,30.2-10.2,48.1-10.2c16.4,0,31,3.1,43.5,9.5
		c12.5,6.4,22.8,15.6,31,27.6c7.9,12,13,26.6,15.3,43.7l-60.9,14.3c-0.3-13-2.8-23-7.4-29.4c-4.9-6.7-12.3-9.7-22.5-9.7
		c-8.4,0-15.9,2.8-22.3,8.7c-6.1,5.6-11.5,13-15.6,21.7c-4.1,9-7.2,18.4-9,28.6c-1.8,10.2-2.8,20-2.8,29.4c0,9,1.3,16.4,4.1,23
		c2.8,6.4,6.7,11.5,11.8,15.1c5.1,3.6,11.5,5.4,19.2,5.4c9.5,0,17.1-3.1,22.5-9.5c5.4-6.4,10-14.6,13.8-24.6l56.5,24.3
		c-9,20.5-21.2,36.6-36.8,48.1C2853.6,317.1,2833.9,322.7,2809.9,322.7z"/>
	<path class="st0" d="M3210.7,322.7c-17.6,0-33.5-4.1-47.8-12.3c-14.3-8.2-25.6-20.2-33.8-35.6c-8.2-15.6-12.3-34.3-12.3-56.3
		c0-20,2.6-38.6,7.7-55.8s12.5-32,22.3-44.3c9.7-12.5,21.5-22.3,35.6-28.9c14.1-6.9,29.9-10.2,47.6-10.2c17.9,0,33.8,4.1,48.1,12.3
		c14.1,8.2,25.3,20.2,33.5,35.6c8.2,15.6,12.3,34.3,12.3,56.3c0,20-2.6,38.6-7.4,55.5s-12.3,31.7-22,44.3s-21.5,22.3-35.6,29.2
		C3244.5,319.4,3228.3,322.7,3210.7,322.7z M3212.2,266.7c8.2,0,15.1-2.8,21-8.2c5.9-5.4,10.7-12.8,14.8-21.7c3.8-9,6.9-18.7,9-29.2
		c2-10.5,3.1-20.7,3.1-30.4c0-9-1.3-16.6-3.6-23c-2.3-6.1-5.9-10.7-10.5-14.1c-4.6-3.1-10.5-4.6-17.6-4.6c-8.2,0-15.1,2.8-21,8.2
		s-10.7,12.8-14.8,21.7c-3.8,9-6.9,18.7-9,29.2c-2,10.5-3.1,20.7-3.1,30.4c0,9,1.3,16.4,3.6,22.8c2.3,6.4,5.9,11,10.7,14.1
		C3199.4,265.1,3205.3,266.7,3212.2,266.7z"/>
</g>
<g>
	<path class="st0" d="M1852.2,79.4c19.4,0,36.8,3.1,51.9,9.2c15.1,6.1,28.4,15.3,39.9,27.6l-27.6,46.8c-9.5-9-19.2-16.1-29.7-21.2
		c-10.5-5.1-22-7.7-34.8-7.7c-6.4,0-11.8,0.8-15.6,2c-3.8,1.5-6.9,3.3-8.7,5.9c-1.8,2.6-2.6,5.4-2.6,8.4c0,3.8,2,6.9,6.1,9.2
		c4.1,2.3,9.7,4.6,16.9,6.4l31.2,8.2c20.7,5.4,36.3,13.6,46.6,24c10.2,10.7,15.3,25.1,15.3,43.5c0,17.9-3.8,32.7-11.8,44.8
		c-7.7,12-18.4,21-32,26.9c-13.6,5.9-28.9,9-45.8,9c-13.6,0-26.6-1.5-39.4-4.6c-12.8-3.1-24.6-7.7-35-13.3
		c-10.5-5.9-19.7-12.8-27.4-21l27.1-48.1c5.6,6.1,12.5,11.8,20.5,16.6c8.2,4.9,16.6,8.7,25.8,11.5c9.2,2.8,17.9,4.3,26.6,4.3
		c6.1,0,11-0.8,14.8-2s6.7-3.1,8.2-5.6c1.5-2.3,2.6-5.1,2.6-8.7c0-4.1-1.3-7.4-4.1-9.7c-2.8-2.6-7.7-4.6-15.3-6.7l-34.3-9
		c-11.3-2.8-21.7-6.9-31.2-11.8c-9.5-5.1-17.1-12-23-21c-5.6-9-8.7-20.7-8.7-35.3c0-15.6,3.6-29.2,11-41.2
		c7.2-12,17.9-21.2,31.7-27.9C1815.9,82.8,1832.5,79.4,1852.2,79.4z"/>
	<path class="st0" d="M2264.5,88.1c17.6,0,32.7,3.1,45,9.5s21.7,15.6,28.4,27.6c6.7,12,9.7,26.9,9.7,44.3s-3.3,32.2-9.7,44.3
		c-6.7,12-16.1,21.2-28.4,27.6s-27.4,9.5-45,9.5h-38.6v73.7h-63.7V88.1H2264.5z M2254.3,197.6c9.5,0,16.6-2.3,21.7-6.9
		c5.1-4.6,7.7-11.8,7.7-21.2s-2.6-16.6-7.7-21.2s-12.5-6.9-21.7-6.9h-28.4v56.5h28.4V197.6z"/>
	<path class="st0" d="M2641.8,83c25.6,0,45.3,6.7,59.3,20.2s21,31.5,21,54c0,25.1-6.9,44-20.5,56.8c-13.8,12.8-33.5,19.4-59.3,19.4
		l-6.1,3.8h-37.3v81.9h-62.4V83H2641.8z M2631.3,187.4c9,0,15.6-2,20.2-5.9c4.3-3.8,6.7-10.5,6.7-19.4s-2.3-15.6-6.7-19.7
		c-4.3-4.1-11.3-6.1-20.2-6.1h-32.7v51.2H2631.3z M2669.2,203l64.7,116.4h-69.6L2614.2,216L2669.2,203z"/>
	<path class="st0" d="M3017.1,79.4c21.5,0,39.6,4.9,55,14.6c15.3,9.7,27.1,23.5,35.3,41.7c8.2,18.2,12.3,39.9,12.3,65.5
		s-4.1,47.3-12.3,65.5c-8.2,18.2-20,32-35.3,41.7s-33.5,14.6-55,14.6c-21.2,0-39.6-4.9-55-14.6c-15.6-9.7-27.4-23.5-35.8-41.7
		s-12.5-39.9-12.5-65.5s4.1-47.3,12.5-65.5c8.2-18.2,20.2-32,35.8-41.7C2977.7,84.3,2995.8,79.4,3017.1,79.4z M3017.1,135.2
		c-8.4,0-15.6,2.6-21,7.4c-5.6,4.9-9.7,12-12.5,21.7c-2.8,9.5-4.1,21.7-4.1,36.8c0,14.8,1.3,27.1,4.1,36.6
		c2.8,9.7,6.9,16.9,12.5,21.7c5.6,4.9,12.5,7.4,21,7.4c8.2,0,15.3-2.6,21-7.4c5.6-4.9,9.7-12.3,12.5-21.7c2.8-9.7,4.1-22,4.1-36.6
		c0-15.1-1.3-27.4-4.1-36.8c-2.8-9.5-6.9-16.9-12.5-21.7C3032.4,137.8,3025.5,135.2,3017.1,135.2z"/>
	<path class="st0" d="M3386.7,261.8h98v54.7h-161.4V80.5h63.7v181.4H3386.7z"/>
</g>
</svg>