<svg version="1.1" id="Layer_1" xmlns="http://www.w3.org/2000/svg" xmlns:xlink="http://www.w3.org/1999/xlink" x="0px" y="0px"
	 viewBox="0 0 700 150" style="enable-background:new 0 0 700 150;" xml:space="preserve">
<style type="text/css">
	.st0{fill:#FFE800;}
</style>
<g>
	<path class="st0" d="M119.5,121.9c-8.5,0-15.5-1.7-21.1-5.1s-9.5-8.3-11.7-14.7c-2.2-6.4-2.4-14-0.6-22.9l10.4-51.1h25.1l-11,54.7
		c-0.7,3.6-0.6,6.7,0.1,9.3c0.7,2.6,2,4.5,3.9,5.9s4.3,2,7.1,2c3.7,0,6.6-1.3,8.7-3.8c2.1-2.6,3.6-6.5,4.6-11.7l11.5-56.4h24.9
		L160,84.2c-2.7,12.8-7.2,22.2-13.6,28.4C140,118.8,131.1,121.9,119.5,121.9z"/>
	<path class="st0" d="M232.7,119.8l18.6-92.3h65.2l-4.3,21.4h-40.3l-3,15h31.8l-3.9,19.9H265l-3,14.5h41.2l-4.4,21.4L232.7,119.8
		L232.7,119.8z"/>
	<path class="st0" d="M424.2,120.1c-7.1,0-13.5-1.6-19.1-4.9s-10-7.9-13.2-13.9s-4.8-13-4.8-21.1c0-8.2,1-15.7,3-22.5
		s5-12.6,8.8-17.5s8.5-8.7,14-11.3c5.5-2.7,11.8-4,18.8-4c6.4,0,12.1,1.2,17,3.7s8.9,6.1,12.1,10.8c3.1,4.7,5.1,10.4,6,17.1
		L443,62.1c-0.1-5.1-1.1-9-2.9-11.5c-1.9-2.6-4.8-3.8-8.8-3.8c-3.3,0-6.2,1.1-8.7,3.4c-2.4,2.2-4.5,5.1-6.1,8.5
		c-1.6,3.5-2.8,7.2-3.5,11.2s-1.1,7.8-1.1,11.5c0,3.5,0.5,6.4,1.6,9c1.1,2.5,2.6,4.5,4.6,5.9s4.5,2.1,7.5,2.1c3.7,0,6.7-1.2,8.8-3.7
		c2.1-2.5,3.9-5.7,5.4-9.6l22.1,9.5c-3.5,8-8.3,14.3-14.4,18.8C441.3,117.9,433.6,120.1,424.2,120.1z"/>
	<path class="st0" d="M580.9,120.1c-6.9,0-13.1-1.6-18.7-4.8c-5.6-3.2-10-7.9-13.2-13.9c-3.2-6.1-4.8-13.4-4.8-22
		c0-7.8,1-15.1,3-21.8s4.9-12.5,8.7-17.3c3.8-4.9,8.4-8.7,13.9-11.3c5.5-2.7,11.7-4,18.6-4c7,0,13.2,1.6,18.8,4.8
		c5.5,3.2,9.9,7.9,13.1,13.9c3.2,6.1,4.8,13.4,4.8,22c0,7.8-1,15.1-2.9,21.7s-4.8,12.4-8.6,17.3s-8.4,8.7-13.9,11.4
		C594.1,118.8,587.8,120.1,580.9,120.1z M581.5,98.2c3.2,0,5.9-1.1,8.2-3.2s4.2-5,5.8-8.5c1.5-3.5,2.7-7.3,3.5-11.4
		s1.2-8.1,1.2-11.9c0-3.5-0.5-6.5-1.4-9c-0.9-2.4-2.3-4.2-4.1-5.5c-1.8-1.2-4.1-1.8-6.9-1.8c-3.2,0-5.9,1.1-8.2,3.2
		c-2.3,2.1-4.2,5-5.8,8.5c-1.5,3.5-2.7,7.3-3.5,11.4s-1.2,8.1-1.2,11.9c0,3.5,0.5,6.4,1.4,8.9s2.3,4.3,4.2,5.5
		C576.5,97.6,578.8,98.2,581.5,98.2z"/>
</g>
<g>
	<path class="st0" d="M49.8,25c7.6,0,14.4,1.2,20.3,3.6s11.1,6,15.6,10.8L74.9,57.7c-3.7-3.5-7.5-6.3-11.6-8.3s-8.6-3-13.6-3
		c-2.5,0-4.6,0.3-6.1,0.8c-1.5,0.6-2.7,1.3-3.4,2.3s-1,2.1-1,3.3c0,1.5,0.8,2.7,2.4,3.6c1.6,0.9,3.8,1.8,6.6,2.5l12.2,3.2
		c8.1,2.1,14.2,5.3,18.2,9.4c4,4.2,6,9.8,6,17c0,7-1.5,12.8-4.6,17.5c-3,4.7-7.2,8.2-12.5,10.5S56.2,120,49.6,120
		c-5.3,0-10.4-0.6-15.4-1.8c-5-1.2-9.6-3-13.7-5.2c-4.1-2.3-7.7-5-10.7-8.2L20.4,86c2.2,2.4,4.9,4.6,8,6.5c3.2,1.9,6.5,3.4,10.1,4.5
		s7,1.7,10.4,1.7c2.4,0,4.3-0.3,5.8-0.8s2.6-1.2,3.2-2.2c0.6-0.9,1-2,1-3.4c0-1.6-0.5-2.9-1.6-3.8c-1.1-1-3-1.8-6-2.6l-13.4-3.5
		c-4.4-1.1-8.5-2.7-12.2-4.6c-3.7-2-6.7-4.7-9-8.2c-2.2-3.5-3.4-8.1-3.4-13.8c0-6.1,1.4-11.4,4.3-16.1c2.8-4.7,7-8.3,12.4-10.9
		C35.6,26.3,42.1,25,49.8,25z"/>
	<path class="st0" d="M211,28.4c6.9,0,12.8,1.2,17.6,3.7s8.5,6.1,11.1,10.8s3.8,10.5,3.8,17.3s-1.3,12.6-3.8,17.3
		c-2.6,4.7-6.3,8.3-11.1,10.8S217.9,92,211,92h-15.1v28.8H171V28.4H211z M207,71.2c3.7,0,6.5-0.9,8.5-2.7c2-1.8,3-4.6,3-8.3
		s-1-6.5-3-8.3s-4.9-2.7-8.5-2.7h-11.1v22.1H207V71.2z"/>
	<path class="st0" d="M358.5,26.4c10,0,17.7,2.6,23.2,7.9s8.2,12.3,8.2,21.1c0,9.8-2.7,17.2-8,22.2c-5.4,5-13.1,7.6-23.2,7.6
		l-2.4,1.5h-14.6v32h-24.4V26.4H358.5z M354.4,67.2c3.5,0,6.1-0.8,7.9-2.3c1.7-1.5,2.6-4.1,2.6-7.6s-0.9-6.1-2.6-7.7
		c-1.7-1.6-4.4-2.4-7.9-2.4h-12.8v20H354.4z M369.2,73.3l25.3,45.5h-27.2l-19.6-40.4L369.2,73.3z"/>
	<path class="st0" d="M505.2,25c8.4,0,15.5,1.9,21.5,5.7s10.6,9.2,13.8,16.3s4.8,15.6,4.8,25.6s-1.6,18.5-4.8,25.6
		s-7.8,12.5-13.8,16.3s-13.1,5.7-21.5,5.7c-8.3,0-15.5-1.9-21.5-5.7c-6.1-3.8-10.7-9.2-14-16.3c-3.3-7.1-4.9-15.6-4.9-25.6
		s1.6-18.5,4.9-25.6c3.2-7.1,7.9-12.5,14-16.3C489.8,26.9,496.9,25,505.2,25z M505.2,46.8c-3.3,0-6.1,1-8.2,2.9
		c-2.2,1.9-3.8,4.7-4.9,8.5c-1.1,3.7-1.6,8.5-1.6,14.4c0,5.8,0.5,10.6,1.6,14.3c1.1,3.8,2.7,6.6,4.9,8.5c2.2,1.9,4.9,2.9,8.2,2.9
		c3.2,0,6-1,8.2-2.9s3.8-4.8,4.9-8.5c1.1-3.8,1.6-8.6,1.6-14.3c0-5.9-0.5-10.7-1.6-14.4s-2.7-6.6-4.9-8.5
		C511.2,47.8,508.5,46.8,505.2,46.8z"/>
	<path class="st0" d="M649.7,96.3H688v21.4h-63.1V25.4h24.9v70.9H649.7z"/>
</g>
</svg>