<svg id="instaIcon" viewBox="0 0 22 22">
        <path d="M11.1332 5.96389C8.22185 5.96389 5.87221 8.31353 5.87221 11.2249C5.87221 14.1363 8.22185 16.4859 11.1332 16.4859C14.0446 16.4859 16.3943 14.1363 16.3943 11.2249C16.3943 8.31353 14.0446 5.96389 11.1332 5.96389ZM11.1332 14.6442C9.25046 14.6442 7.71396 13.1077 7.71396 11.2249C7.71396 9.34213 9.25046 7.80564 11.1332 7.80564C13.016 7.80564 14.5525 9.34213 14.5525 11.2249C14.5525 13.1077 13.016 14.6442 11.1332 14.6442ZM16.6097 4.5223C15.93 4.5223 15.3811 5.07123 15.3811 5.75099C15.3811 6.43074 15.93 6.97967 16.6097 6.97967C17.2895 6.97967 17.8384 6.43331 17.8384 5.75099C17.8386 5.58958 17.807 5.42971 17.7453 5.28055C17.6836 5.13139 17.5931 4.99586 17.479 4.88172C17.3649 4.76759 17.2293 4.67709 17.0802 4.61542C16.931 4.55374 16.7712 4.5221 16.6097 4.5223ZM21.3885 11.2249C21.3885 9.80898 21.4014 8.40587 21.3218 6.9925C21.2423 5.35083 20.8678 3.89385 19.6673 2.69338C18.4643 1.49035 17.0099 1.11841 15.3682 1.03889C13.9523 0.959373 12.5492 0.972199 11.1358 0.972199C9.71987 0.972199 8.31676 0.959373 6.90339 1.03889C5.26172 1.11841 3.80474 1.49291 2.60427 2.69338C1.40124 3.89642 1.0293 5.35083 0.94978 6.9925C0.870262 8.40844 0.883087 9.81155 0.883087 11.2249C0.883087 12.6383 0.870262 14.044 0.94978 15.4573C1.0293 17.099 1.4038 18.556 2.60427 19.7565C3.80731 20.9595 5.26172 21.3314 6.90339 21.4109C8.31932 21.4905 9.72244 21.4776 11.1358 21.4776C12.5517 21.4776 13.9549 21.4905 15.3682 21.4109C17.0099 21.3314 18.4669 20.9569 19.6673 19.7565C20.8704 18.5534 21.2423 17.099 21.3218 15.4573C21.4039 14.044 21.3885 12.6409 21.3885 11.2249ZM19.1312 17.2734C18.944 17.7403 18.7183 18.0891 18.3566 18.4483C17.9949 18.8099 17.6486 19.0357 17.1818 19.2229C15.8325 19.759 12.6287 19.6385 11.1332 19.6385C9.63779 19.6385 6.43141 19.759 5.08216 19.2255C4.61531 19.0382 4.26646 18.8125 3.90735 18.4508C3.54567 18.0891 3.31994 17.7428 3.13268 17.276C2.59914 15.9242 2.7197 12.7204 2.7197 11.2249C2.7197 9.72946 2.59914 6.52308 3.13268 5.17384C3.31994 4.70699 3.54567 4.35814 3.90735 3.99902C4.26903 3.63991 4.61531 3.41161 5.08216 3.22436C6.43141 2.69082 9.63779 2.81138 11.1332 2.81138C12.6287 2.81138 15.8351 2.69082 17.1843 3.22436C17.6512 3.41161 18 3.63734 18.3591 3.99902C18.7208 4.3607 18.9466 4.70699 19.1338 5.17384C19.6673 6.52308 19.5468 9.72946 19.5468 11.2249C19.5468 12.7204 19.6673 15.9242 19.1312 17.2734Z"></path>
      </svg>